<svg xmlns="http://www.w3.org/2000/svg" width="1800" height="900" viewBox="0 0 1800 900">
<defs>
  <linearGradient id="sky" x1="0" x2="1" y1="0" y2="1">
    <stop offset="0" stop-color="#d8ecff"/>
    <stop offset="1" stop-color="#f6f8fb"/>
  </linearGradient>
  <linearGradient id="steel" x1="0" x2="1">
    <stop offset="0" stop-color="#252b33"/>
    <stop offset="0.45" stop-color="#9aa3ad"/>
    <stop offset="1" stop-color="#161b22"/>
  </linearGradient>
  <filter id="shadow"><feDropShadow dx="0" dy="18" stdDeviation="10" flood-color="#000" flood-opacity=".25"/></filter>
</defs>
<rect width="1800" height="900" fill="url(#sky)"/>
<g opacity=".25">
  <rect x="1160" y="210" width="70" height="360" fill="#93a8bd"/>
  <rect x="1260" y="160" width="105" height="410" fill="#839bb4"/>
  <rect x="1400" y="250" width="90" height="320" fill="#a3b3c3"/>
  <rect x="1525" y="190" width="130" height="380" fill="#91a6ba"/>
  <path d="M1010 180 L1700 180 M1080 115 L1180 570" stroke="#d28b22" stroke-width="12"/>
</g>
<polygon points="0,520 1800,420 1800,900 0,900" fill="#b7c0c8"/>
<polygon points="0,610 1800,470 1800,900 0,900" fill="#c8d0d8"/>
<g opacity=".25" stroke="#003b7a" fill="none">
  <path d="M-60 180 C160 60 250 70 480 150"/>
  <path d="M-40 300 L550 110 M60 420 L650 230 M160 540 L760 330"/>
  <circle cx="100" cy="160" r="90"/><circle cx="100" cy="160" r="55"/>
</g>

<g filter="url(#shadow)">
  <g transform="translate(1140,180) scale(1.28)">
    <ellipse cx="150" cy="445" rx="230" ry="55" fill="#77828f"/>
    <rect x="20" y="355" width="260" height="90" rx="6" fill="#9aa3ad"/>
    <circle cx="55" cy="395" r="16" fill="#5a6572"/><circle cx="245" cy="395" r="16" fill="#5a6572"/>
    <rect x="125" y="20" width="52" height="335" rx="13" fill="url(#steel)"/>
    <g stroke="#101820" stroke-width="5">
      <path d="M126 42 H177 M126 70 H177 M126 98 H177 M126 126 H177 M126 154 H177 M126 182 H177 M126 210 H177 M126 238 H177 M126 266 H177 M126 294 H177 M126 322 H177"/>
    </g>
    <polygon points="82,180 220,180 250,230 220,280 82,280 52,230" fill="#8a939d"/>
    <polygon points="82,180 220,180 250,230 52,230" fill="#c0c7cf"/>
    <polygon points="52,230 250,230 220,280 82,280" fill="#6f7882"/>
  </g>
  <g transform="translate(770,260) scale(.9)" opacity=".78">
    <ellipse cx="150" cy="445" rx="230" ry="55" fill="#77828f"/>
    <rect x="20" y="355" width="260" height="90" rx="6" fill="#9aa3ad"/>
    <rect x="125" y="20" width="52" height="335" rx="13" fill="url(#steel)"/>
    <g stroke="#101820" stroke-width="5">
      <path d="M126 42 H177 M126 70 H177 M126 98 H177 M126 126 H177 M126 154 H177 M126 182 H177 M126 210 H177 M126 238 H177 M126 266 H177 M126 294 H177 M126 322 H177"/>
    </g>
    <polygon points="82,180 220,180 250,230 220,280 82,280 52,230" fill="#8a939d"/>
  </g>
  <g transform="translate(510,305) scale(.65)" opacity=".58">
    <ellipse cx="150" cy="445" rx="230" ry="55" fill="#77828f"/>
    <rect x="20" y="355" width="260" height="90" rx="6" fill="#9aa3ad"/>
    <rect x="125" y="20" width="52" height="335" rx="13" fill="url(#steel)"/>
    <g stroke="#101820" stroke-width="5">
      <path d="M126 42 H177 M126 70 H177 M126 98 H177 M126 126 H177 M126 154 H177 M126 182 H177 M126 210 H177 M126 238 H177 M126 266 H177 M126 294 H177 M126 322 H177"/>
    </g>
    <polygon points="82,180 220,180 250,230 220,280 82,280 52,230" fill="#8a939d"/>
  </g>
</g>
</svg>